<svg xmlns="http://www.w3.org/2000/svg" xmlns:xlink="http://www.w3.org/1999/xlink" viewBox="0 0 517.25 768"><defs><style>.cls-1{fill:#fafcfb;}.cls-2{fill:url(#linear-gradient);}.cls-3{fill:#3b81ac;}.cls-4{fill:url(#linear-gradient-2);}.cls-5{fill:#4592c4;}</style><linearGradient id="linear-gradient" y1="178.9" x2="517.25" y2="178.9" gradientUnits="userSpaceOnUse"><stop offset="0" stop-color="#47761c"/><stop offset="1" stop-color="#74b43d"/></linearGradient><linearGradient id="linear-gradient-2" x1="300.57" y1="715.9" x2="516.23" y2="715.9" gradientUnits="userSpaceOnUse"><stop offset="0" stop-color="#598e2c"/><stop offset="1" stop-color="#74b53d"/></linearGradient></defs><g id="Layer_2" data-name="Layer 2"><g id="Layer_1-2" data-name="Layer 1"><rect class="cls-1" x="1.7" y="119.04" width="514.53" height="648.96"/><polygon class="cls-2" points="0 0 0 357.8 90.49 333.35 252.97 232.48 417.5 203.95 505.93 178.9 517.25 178.9 517.25 0 0 0"/><path class="cls-3" d="M0,411.46V336.4S269.56,163.19,517.25,148.25v72.68S210.79,260.33,0,411.46Z"/><polygon class="cls-4" points="516.23 768 516.23 663.8 379.02 696.06 332.15 727.31 304.3 756.18 300.57 768 516.23 768"/><path class="cls-5" d="M191.21,768H306.68c41.09-32,209.55-98.43,209.55-98.43V611.16s-101.89,35-151.14,61.13S217.36,751.3,191.21,768Z"/></g></g></svg>